# xmcd CD database file
#
# Track frame offsets:
#	150
#	35765
#	70535
#	102692
#	145000
#	156495
#	184867
#	204087
#	248097
#	268587
#	293052
#	309690
#
# Disc length: 4336 seconds
#
# Revision: 0
# Processed by: cddbd v1.5.1PL0 Copyright (c) Steve Scherf et al.
# Submitted via: CDex 1.51
#
DISCID=b010ee0c
DTITLE=Various Artist - Basquiat Salutes Jazz
DYEAR=2005
DGENRE=Jazz
TTITLE0=Miles Davis/I'll Remember April
TTITLE1=Charlie Parker, Dizzy Gillespie, Bud Powell, Max Roach, Charles Mingus/Salt Peanuts
TTITLE2=Sonny Rollins/Kiss and Run
TTITLE3=The Red Garland Quintet with John Coltrane/Billie's Bounce
TTITLE4=Sonny Stitt/Cherokee
TTITLE5=Thelonious Monk Quartet/'Round Midnight
TTITLE6=Max Roach/It's You or No One
TTITLE7=Art Blakey And The Jazz Messengers/Caravan
TTITLE8=Dizzy Gillespie/Be Bop (Dizzy's Fingers)
TTITLE9=Charles Mingus Quartet Plus Max Roach/Haitian Fight Song
TTITLE10=Fats Navarro featured with Tadd Dameron Band/Anthropology (No.1)
TTITLE11=Charlie Parker/Ornithology
EXTD=YEAR: 2005
EXTT0=
EXTT1=
EXTT2=
EXTT3=
EXTT4=
EXTT5=
EXTT6=
EXTT7=
EXTT8=
EXTT9=
EXTT10=
EXTT11=
PLAYORDER=
